<?xml version="1.0" encoding="UTF-8" standalone="no"?>
<!DOCTYPE svg PUBLIC "-//W3C//DTD SVG 1.1//EN"
 "http://www.w3.org/Graphics/SVG/1.1/DTD/svg11.dtd">
<!-- Generated by graphviz version 7.0.4 (0)
 -->
<!-- Pages: 1 -->
<svg width="194pt" height="251pt"
 viewBox="0.00 0.00 193.80 251.00" xmlns="http://www.w3.org/2000/svg" xmlns:xlink="http://www.w3.org/1999/xlink">
<g id="graph0" class="graph" transform="scale(1 1) rotate(0) translate(4 247)">
<polygon fill="white" stroke="none" points="-4,4 -4,-247 189.8,-247 189.8,4 -4,4"/>
<!-- A -->
<g id="node1" class="node">
<title>A</title>
<polygon fill="none" stroke="black" points="92.8,-196.5 92.8,-242.5 146.8,-242.5 146.8,-196.5 92.8,-196.5"/>
<text text-anchor="middle" x="106.8" y="-215.8" font-family="Times,serif" font-size="14.00">A</text>
<polyline fill="none" stroke="black" points="120.8,-196.5 120.8,-242.5"/>
<text text-anchor="middle" x="133.8" y="-227.3" font-family="Times,serif" font-size="14.00">0</text>
<polyline fill="none" stroke="black" points="120.8,-219.5 146.8,-219.5"/>
<text text-anchor="middle" x="133.8" y="-204.3" font-family="Times,serif" font-size="14.00">1</text>
</g>
<!-- B -->
<g id="node2" class="node">
<title>B</title>
<polygon fill="none" stroke="black" points="85.8,-0.5 85.8,-46.5 139.8,-46.5 139.8,-0.5 85.8,-0.5"/>
<text text-anchor="middle" x="99.8" y="-19.8" font-family="Times,serif" font-size="14.00">B</text>
<polyline fill="none" stroke="black" points="113.8,-0.5 113.8,-46.5"/>
<text text-anchor="middle" x="126.8" y="-31.3" font-family="Times,serif" font-size="14.00">0</text>
<polyline fill="none" stroke="black" points="113.8,-23.5 139.8,-23.5"/>
<text text-anchor="middle" x="126.8" y="-8.3" font-family="Times,serif" font-size="14.00">1</text>
</g>
<!-- A&#45;&gt;B -->
<g id="edge1" class="edge">
<title>A:0&#45;&gt;B</title>
<path fill="none" stroke="black" d="M147.8,-231.5C218.11,-231.5 162.57,-113.95 130.93,-56.01"/>
<polygon fill="black" stroke="black" points="134.17,-54.63 126.26,-47.59 128.05,-58.03 134.17,-54.63"/>
<text text-anchor="middle" x="177.8" y="-117.8" font-family="Times,serif" font-size="14.00">R1</text>
</g>
<!-- C -->
<g id="node3" class="node">
<title>C</title>
<polygon fill="none" stroke="black" points="29.8,-98.5 29.8,-144.5 83.8,-144.5 83.8,-98.5 29.8,-98.5"/>
<text text-anchor="middle" x="43.8" y="-117.8" font-family="Times,serif" font-size="14.00">C</text>
<polyline fill="none" stroke="black" points="57.8,-98.5 57.8,-144.5"/>
<text text-anchor="middle" x="70.8" y="-129.3" font-family="Times,serif" font-size="14.00">0</text>
<polyline fill="none" stroke="black" points="57.8,-121.5 83.8,-121.5"/>
<text text-anchor="middle" x="70.8" y="-106.3" font-family="Times,serif" font-size="14.00">1</text>
</g>
<!-- A&#45;&gt;C -->
<g id="edge2" class="edge">
<title>A:1&#45;&gt;C</title>
<path fill="none" stroke="black" d="M133.8,-196C133.8,-174.87 105.8,-191.79 89.8,-178 82.23,-171.48 75.93,-162.77 70.94,-154.19"/>
<polygon fill="black" stroke="black" points="74.18,-152.83 66.38,-145.65 68,-156.12 74.18,-152.83"/>
<text text-anchor="middle" x="97.8" y="-166.8" font-family="Times,serif" font-size="14.00">L1</text>
</g>
<!-- B&#45;&gt;A -->
<g id="edge3" class="edge">
<title>B:0&#45;&gt;A</title>
<path fill="none" stroke="black" d="M126.8,-47C126.8,-95.11 124.01,-150.76 121.96,-185.29"/>
<polygon fill="black" stroke="black" points="118.47,-184.88 121.36,-195.07 125.46,-185.31 118.47,-184.88"/>
<text text-anchor="middle" x="133.8" y="-117.8" font-family="Times,serif" font-size="14.00">L1</text>
</g>
<!-- B&#45;&gt;B -->
<g id="edge4" class="edge">
<title>B:1&#45;&gt;B</title>
<path fill="none" stroke="black" d="M139.64,-4.09C149.71,-0.77 157.8,-4.53 157.8,-17.5 157.8,-23.17 154.9,-27.08 150.45,-29.41"/>
<polygon fill="black" stroke="black" points="149.97,-25.92 141.06,-31.66 151.6,-32.73 149.97,-25.92"/>
<text text-anchor="middle" x="165.8" y="-19.8" font-family="Times,serif" font-size="14.00">R1</text>
</g>
<!-- C&#45;&gt;B -->
<g id="edge5" class="edge">
<title>C:0&#45;&gt;B</title>
<path fill="none" stroke="black" d="M84.8,-133.5C115.32,-133.5 80.93,-94.21 89.8,-65 90.64,-62.22 91.7,-59.43 92.89,-56.68"/>
<polygon fill="black" stroke="black" points="96.01,-58.27 97.36,-47.76 89.75,-55.14 96.01,-58.27"/>
<text text-anchor="middle" x="97.8" y="-68.8" font-family="Times,serif" font-size="14.00">L1</text>
</g>
<!-- HALT -->
<g id="node4" class="node">
<title>HALT</title>
<ellipse fill="none" stroke="black" cx="33.8" cy="-23.5" rx="33.6" ry="18"/>
<text text-anchor="middle" x="33.8" y="-19.8" font-family="Times,serif" font-size="14.00">HALT</text>
</g>
<!-- C&#45;&gt;HALT -->
<g id="edge6" class="edge">
<title>C:1&#45;&gt;HALT</title>
<path fill="none" stroke="black" d="M70.8,-98C70.8,-82.83 50.1,-92.7 41.8,-80 36.68,-72.18 34.28,-62.43 33.27,-53.29"/>
<polygon fill="black" stroke="black" points="36.77,-53.14 32.73,-43.35 29.78,-53.53 36.77,-53.14"/>
<text text-anchor="middle" x="49.8" y="-68.8" font-family="Times,serif" font-size="14.00">R1</text>
</g>
</g>
</svg>
