<?xml version="1.0" encoding="UTF-8" standalone="no"?>
<!DOCTYPE svg PUBLIC "-//W3C//DTD SVG 1.1//EN"
 "http://www.w3.org/Graphics/SVG/1.1/DTD/svg11.dtd">
<!-- Generated by graphviz version 7.0.4 (0)
 -->
<!-- Pages: 1 -->
<svg width="316pt" height="468pt"
 viewBox="0.00 0.00 316.30 468.00" xmlns="http://www.w3.org/2000/svg" xmlns:xlink="http://www.w3.org/1999/xlink">
<g id="graph0" class="graph" transform="scale(1 1) rotate(0) translate(4 464)">
<polygon fill="white" stroke="none" points="-4,4 -4,-464 312.3,-464 312.3,4 -4,4"/>
<!-- A -->
<g id="node1" class="node">
<title>A</title>
<polygon fill="none" stroke="black" points="95,-413.5 95,-459.5 149,-459.5 149,-413.5 95,-413.5"/>
<text text-anchor="middle" x="109" y="-432.8" font-family="Times,serif" font-size="14.00">A</text>
<polyline fill="none" stroke="black" points="123,-413.5 123,-459.5"/>
<text text-anchor="middle" x="136" y="-444.3" font-family="Times,serif" font-size="14.00">0</text>
<polyline fill="none" stroke="black" points="123,-436.5 149,-436.5"/>
<text text-anchor="middle" x="136" y="-421.3" font-family="Times,serif" font-size="14.00">1</text>
</g>
<!-- A&#45;&gt;A -->
<g id="edge1" class="edge">
<title>A:0&#45;&gt;A</title>
<path fill="none" stroke="black" d="M148.85,-455.91C158.91,-459.23 167,-455.47 167,-442.5 167,-436.83 164.1,-432.92 159.66,-430.59"/>
<polygon fill="black" stroke="black" points="160.81,-427.27 150.27,-428.34 159.17,-434.08 160.81,-427.27"/>
<text text-anchor="middle" x="175" y="-432.8" font-family="Times,serif" font-size="14.00">R0</text>
</g>
<!-- B -->
<g id="node2" class="node">
<title>B</title>
<polygon fill="none" stroke="black" points="56,-315.5 56,-361.5 110,-361.5 110,-315.5 56,-315.5"/>
<text text-anchor="middle" x="70" y="-334.8" font-family="Times,serif" font-size="14.00">B</text>
<polyline fill="none" stroke="black" points="84,-315.5 84,-361.5"/>
<text text-anchor="middle" x="97" y="-346.3" font-family="Times,serif" font-size="14.00">0</text>
<polyline fill="none" stroke="black" points="84,-338.5 110,-338.5"/>
<text text-anchor="middle" x="97" y="-323.3" font-family="Times,serif" font-size="14.00">1</text>
</g>
<!-- A&#45;&gt;B -->
<g id="edge2" class="edge">
<title>A:1&#45;&gt;B</title>
<path fill="none" stroke="black" d="M136,-413C136,-396.92 127.55,-381.97 117.41,-369.8"/>
<polygon fill="black" stroke="black" points="120.15,-367.62 110.83,-362.58 114.97,-372.33 120.15,-367.62"/>
<text text-anchor="middle" x="140" y="-383.8" font-family="Times,serif" font-size="14.00">R1</text>
</g>
<!-- IS_DIVISIBLE -->
<g id="node4" class="node">
<title>IS_DIVISIBLE</title>
<polygon fill="none" stroke="black" points="139,-250.5 139,-296.5 263,-296.5 263,-250.5 139,-250.5"/>
<text text-anchor="middle" x="189.5" y="-269.8" font-family="Times,serif" font-size="14.00">IS_DIVISIBLE</text>
<polyline fill="none" stroke="black" points="240,-250.5 240,-296.5"/>
<text text-anchor="middle" x="251.5" y="-281.3" font-family="Times,serif" font-size="14.00">0</text>
<polyline fill="none" stroke="black" points="240,-273.5 263,-273.5"/>
<text text-anchor="middle" x="251.5" y="-258.3" font-family="Times,serif" font-size="14.00">1</text>
</g>
<!-- A&#45;&gt;IS_DIVISIBLE -->
<g id="edge7" class="edge">
<title>A:0&#45;&gt;IS_DIVISIBLE</title>
<path fill="none" stroke="black" d="M150,-448.5C208.14,-448.5 208.93,-357.93 204.87,-307.48"/>
<polygon fill="black" stroke="black" points="208.37,-307.33 203.96,-297.69 201.4,-307.97 208.37,-307.33"/>
<text text-anchor="middle" x="205" y="-383.8" font-family="Times,serif" font-size="14.00"> </text>
</g>
<!-- B&#45;&gt;A -->
<g id="edge4" class="edge">
<title>B:1&#45;&gt;A</title>
<path fill="none" stroke="black" d="M111,-326.5C134.93,-326.5 108.23,-356.29 105,-380 104.1,-386.61 103.68,-388.46 105,-395 105.53,-397.65 106.24,-400.34 107.08,-403.01"/>
<polygon fill="black" stroke="black" points="103.75,-404.12 110.48,-412.3 110.32,-401.71 103.75,-404.12"/>
<text text-anchor="middle" x="113" y="-383.8" font-family="Times,serif" font-size="14.00">R1</text>
</g>
<!-- C -->
<g id="node3" class="node">
<title>C</title>
<polygon fill="none" stroke="black" points="0,-185.5 0,-231.5 54,-231.5 54,-185.5 0,-185.5"/>
<text text-anchor="middle" x="14" y="-204.8" font-family="Times,serif" font-size="14.00">C</text>
<polyline fill="none" stroke="black" points="28,-185.5 28,-231.5"/>
<text text-anchor="middle" x="41" y="-216.3" font-family="Times,serif" font-size="14.00">0</text>
<polyline fill="none" stroke="black" points="28,-208.5 54,-208.5"/>
<text text-anchor="middle" x="41" y="-193.3" font-family="Times,serif" font-size="14.00">1</text>
</g>
<!-- B&#45;&gt;C -->
<g id="edge3" class="edge">
<title>B:0&#45;&gt;C</title>
<path fill="none" stroke="black" d="M111,-350.5C126.78,-350.5 115.82,-329.67 110,-315 106.06,-305.05 100.39,-305.59 94,-297 79.35,-277.31 79.92,-269.49 65,-250 62.45,-246.66 59.66,-243.29 56.8,-239.99"/>
<polygon fill="black" stroke="black" points="59.45,-237.7 50.16,-232.62 54.25,-242.39 59.45,-237.7"/>
<text text-anchor="middle" x="102" y="-269.8" font-family="Times,serif" font-size="14.00">R0</text>
</g>
<!-- ISNT_DIVISIBLE -->
<g id="node5" class="node">
<title>ISNT_DIVISIBLE</title>
<polygon fill="none" stroke="black" points="53,-87.5 53,-133.5 195,-133.5 195,-87.5 53,-87.5"/>
<text text-anchor="middle" x="112.5" y="-106.8" font-family="Times,serif" font-size="14.00">ISNT_DIVISIBLE</text>
<polyline fill="none" stroke="black" points="172,-87.5 172,-133.5"/>
<text text-anchor="middle" x="183.5" y="-118.3" font-family="Times,serif" font-size="14.00">0</text>
<polyline fill="none" stroke="black" points="172,-110.5 195,-110.5"/>
<text text-anchor="middle" x="183.5" y="-95.3" font-family="Times,serif" font-size="14.00">1</text>
</g>
<!-- B&#45;&gt;ISNT_DIVISIBLE -->
<g id="edge8" class="edge">
<title>B:0&#45;&gt;ISNT_DIVISIBLE</title>
<path fill="none" stroke="black" d="M111,-350.5C131.39,-350.5 128.16,-210 125.54,-144.45"/>
<polygon fill="black" stroke="black" points="129.04,-144.49 125.12,-134.64 122.05,-144.78 129.04,-144.49"/>
<text text-anchor="middle" x="129" y="-204.8" font-family="Times,serif" font-size="14.00"> </text>
</g>
<!-- C&#45;&gt;B -->
<g id="edge5" class="edge">
<title>C:0&#45;&gt;B</title>
<path fill="none" stroke="black" d="M41,-232C41,-260.94 33.53,-270.43 45,-297 46.45,-300.36 48.31,-303.62 50.42,-306.73"/>
<polygon fill="black" stroke="black" points="47.5,-308.68 56.43,-314.38 53,-304.35 47.5,-308.68"/>
<text text-anchor="middle" x="53" y="-269.8" font-family="Times,serif" font-size="14.00">R0</text>
</g>
<!-- C&#45;&gt;C -->
<g id="edge6" class="edge">
<title>C:1&#45;&gt;C</title>
<path fill="none" stroke="black" d="M53.85,-189.09C63.91,-185.77 72,-189.53 72,-202.5 72,-208.17 69.1,-212.08 64.66,-214.41"/>
<polygon fill="black" stroke="black" points="64.17,-210.92 55.27,-216.66 65.81,-217.73 64.17,-210.92"/>
<text text-anchor="middle" x="80" y="-204.8" font-family="Times,serif" font-size="14.00">R1</text>
</g>
<!-- C&#45;&gt;ISNT_DIVISIBLE -->
<g id="edge9" class="edge">
<title>C:0&#45;&gt;ISNT_DIVISIBLE</title>
<path fill="none" stroke="black" d="M55,-220.5C64.22,-220.5 90.13,-175.4 107.44,-143.22"/>
<polygon fill="black" stroke="black" points="110.4,-145.1 112.02,-134.63 104.23,-141.81 110.4,-145.1"/>
<text text-anchor="middle" x="104" y="-155.8" font-family="Times,serif" font-size="14.00"> </text>
</g>
<!-- HALT -->
<g id="node6" class="node">
<title>HALT</title>
<ellipse fill="none" stroke="black" cx="219" cy="-18" rx="33.6" ry="18"/>
<text text-anchor="middle" x="219" y="-14.3" font-family="Times,serif" font-size="14.00">HALT</text>
</g>
<!-- IS_DIVISIBLE&#45;&gt;HALT -->
<g id="edge10" class="edge">
<title>IS_DIVISIBLE:0&#45;&gt;HALT</title>
<path fill="none" stroke="black" d="M264,-285.5C360.65,-285.5 272.64,-112.97 234.55,-45.55"/>
<polygon fill="black" stroke="black" points="237.66,-43.93 229.66,-36.98 231.58,-47.4 237.66,-43.93"/>
<text text-anchor="middle" x="294" y="-155.8" font-family="Times,serif" font-size="14.00"> </text>
</g>
<!-- ISNT_DIVISIBLE&#45;&gt;HALT -->
<g id="edge11" class="edge">
<title>ISNT_DIVISIBLE:0&#45;&gt;HALT</title>
<path fill="none" stroke="black" d="M196,-122.5C211.44,-122.5 216.52,-78.07 218.19,-47.43"/>
<polygon fill="black" stroke="black" points="221.68,-47.75 218.62,-37.6 214.68,-47.44 221.68,-47.75"/>
<text text-anchor="middle" x="219" y="-57.8" font-family="Times,serif" font-size="14.00"> </text>
</g>
</g>
</svg>
