<?xml version="1.0" encoding="UTF-8" standalone="no"?>
<!DOCTYPE svg PUBLIC "-//W3C//DTD SVG 1.1//EN"
 "http://www.w3.org/Graphics/SVG/1.1/DTD/svg11.dtd">
<!-- Generated by graphviz version 7.0.4 (0)
 -->
<!-- Pages: 1 -->
<svg width="93pt" height="55pt"
 viewBox="0.00 0.00 93.00 55.00" xmlns="http://www.w3.org/2000/svg" xmlns:xlink="http://www.w3.org/1999/xlink">
<g id="graph0" class="graph" transform="scale(1 1) rotate(0) translate(4 51)">
<polygon fill="white" stroke="none" points="-4,4 -4,-51 89,-51 89,4 -4,4"/>
<!-- A -->
<g id="node1" class="node">
<title>A</title>
<polygon fill="none" stroke="black" points="0,-0.5 0,-46.5 54,-46.5 54,-0.5 0,-0.5"/>
<text text-anchor="middle" x="14" y="-19.8" font-family="Times,serif" font-size="14.00">A</text>
<polyline fill="none" stroke="black" points="28,-0.5 28,-46.5"/>
<text text-anchor="middle" x="41" y="-31.3" font-family="Times,serif" font-size="14.00">0</text>
<polyline fill="none" stroke="black" points="28,-23.5 54,-23.5"/>
<text text-anchor="middle" x="41" y="-8.3" font-family="Times,serif" font-size="14.00">1</text>
</g>
<!-- A&#45;&gt;A -->
<g id="edge1" class="edge">
<title>A:1&#45;&gt;A</title>
<path fill="none" stroke="black" d="M53.85,-4.4C63.91,-1.23 72,-4.88 72,-17.5 72,-23.02 69.1,-26.82 64.66,-29.09"/>
<polygon fill="black" stroke="black" points="64.2,-25.6 55.27,-31.3 65.8,-32.41 64.2,-25.6"/>
<text text-anchor="middle" x="78.5" y="-19.8" font-family="Times,serif" font-size="14.00">L </text>
</g>
</g>
</svg>
